solid table
facet normal 0.0 -6.767919558115076e-15 -1.0
  outer loop
    vertex 245.49431631285788 121.57724309297637 1.0618671101791832e-13
    vertex 237.87729673785768 113.9602235179758 1.5773808677410607e-13
    vertex 237.87729673785768 121.57724309297637 1.0618671101791832e-13
  endloop
endfacet
facet normal 0.0 -6.767919558115076e-15 -1.0
  outer loop
    vertex 237.87729673785768 113.9602235179758 1.5773808677410607e-13
    vertex 245.49431631285788 121.57724309297637 1.0618671101791832e-13
    vertex 245.49431631285788 113.9602235179758 1.5773808677410607e-13
  endloop
endfacet
facet normal -1.0 0.0 0.0
  outer loop
    vertex 237.87729673785768 121.57724309297637 51.79573311000014
    vertex 237.87729673785768 113.9602235179758 1.5773808677410607e-13
    vertex 237.87729673785768 113.9602235179758 51.79573311000014
  endloop
endfacet
facet normal -1.0 0.0 0.0
  outer loop
    vertex 237.87729673785768 113.9602235179758 1.5773808677410607e-13
    vertex 237.87729673785768 121.57724309297637 51.79573311000014
    vertex 237.87729673785768 121.57724309297637 1.0618671101791832e-13
  endloop
endfacet
facet normal 0.0 -1.0 -5.3081722024431314e-15
  outer loop
    vertex 245.49431631285788 113.9602235179758 51.79573311000014
    vertex 237.87729673785768 113.9602235179758 1.5773808677410607e-13
    vertex 245.49431631285788 113.9602235179758 1.5773808677410607e-13
  endloop
endfacet
facet normal 0.0 -1.0 -5.3081722024431314e-15
  outer loop
    vertex 237.87729673785768 113.9602235179758 1.5773808677410607e-13
    vertex 245.49431631285788 113.9602235179758 51.79573311000014
    vertex 237.87729673785768 113.9602235179758 51.79573311000014
  endloop
endfacet
facet normal 0.0 1.0 2.6540861012215748e-15
  outer loop
    vertex 93.15392481285824 53.02406691797578 51.795733110000015
    vertex 100.7709443878578 53.02406691797578 1.0618671101791832e-13
    vertex 93.15392481285824 53.02406691797578 1.0618671101791832e-13
  endloop
endfacet
facet normal 0.0 1.0 2.6540861012215748e-15
  outer loop
    vertex 100.7709443878578 53.02406691797578 1.0618671101791832e-13
    vertex 93.15392481285824 53.02406691797578 51.795733110000015
    vertex 100.7709443878578 53.02406691797578 51.795733110000015
  endloop
endfacet
facet normal 1.0 0.0 0.0
  outer loop
    vertex 100.7709443878578 53.02406691797578 1.0618671101791832e-13
    vertex 100.7709443878578 45.407047342975616 51.795733110000015
    vertex 100.7709443878578 45.407047342975616 7.181912718046035e-14
  endloop
endfacet
facet normal 1.0 0.0 0.0
  outer loop
    vertex 100.7709443878578 45.407047342975616 51.795733110000015
    vertex 100.7709443878578 53.02406691797578 1.0618671101791832e-13
    vertex 100.7709443878578 53.02406691797578 51.795733110000015
  endloop
endfacet
facet normal 0.0 4.511946372076716e-15 -1.0
  outer loop
    vertex 100.7709443878578 53.02406691797578 1.0618671101791832e-13
    vertex 93.15392481285824 45.407047342975616 7.181912718046035e-14
    vertex 93.15392481285824 53.02406691797578 1.0618671101791832e-13
  endloop
endfacet
facet normal 0.0 4.511946372076716e-15 -1.0
  outer loop
    vertex 93.15392481285824 45.407047342975616 7.181912718046035e-14
    vertex 100.7709443878578 53.02406691797578 1.0618671101791832e-13
    vertex 100.7709443878578 45.407047342975616 7.181912718046035e-14
  endloop
endfacet
facet normal -1.0 0.0 0.0
  outer loop
    vertex 93.15392481285824 45.407047342975616 60.93615660000017
    vertex 93.15392481285824 53.02406691797578 51.795733110000015
    vertex 93.15392481285824 45.407047342975616 7.181912718046035e-14
  endloop
endfacet
facet normal -1.0 0.0 0.0
  outer loop
    vertex 93.15392481285824 53.02406691797578 51.795733110000015
    vertex 93.15392481285824 45.407047342975616 60.93615660000017
    vertex 93.15392481285824 121.57724309297637 60.936156600000146
  endloop
endfacet
facet normal -1.0 0.0 0.0
  outer loop
    vertex 93.15392481285824 53.02406691797578 51.795733110000015
    vertex 93.15392481285824 121.57724309297637 60.936156600000146
    vertex 93.15392481285824 113.9602235179758 51.79573311000014
  endloop
endfacet
facet normal -1.0 0.0 0.0
  outer loop
    vertex 93.15392481285824 113.9602235179758 51.79573311000014
    vertex 93.15392481285824 121.57724309297637 60.936156600000146
    vertex 93.15392481285824 113.9602235179758 1.5773808677410607e-13
  endloop
endfacet
facet normal -1.0 0.0 0.0
  outer loop
    vertex 93.15392481285824 113.9602235179758 1.5773808677410607e-13
    vertex 93.15392481285824 121.57724309297637 60.936156600000146
    vertex 93.15392481285824 121.57724309297637 1.0618671101791832e-13
  endloop
endfacet
facet normal -1.0 0.0 0.0
  outer loop
    vertex 93.15392481285824 53.02406691797578 1.0618671101791832e-13
    vertex 93.15392481285824 45.407047342975616 7.181912718046035e-14
    vertex 93.15392481285824 53.02406691797578 51.795733110000015
  endloop
endfacet
facet normal 4.736297296655084e-16 -1.0 -3.610858307862358e-15
  outer loop
    vertex 245.49431631285788 45.407047342975616 60.93615660000017
    vertex 237.87729673785768 45.407047342975616 -1.4099832413184704e-14
    vertex 245.49431631285788 45.407047342975616 -1.4099832413184704e-14
  endloop
endfacet
facet normal 4.736297296655084e-16 -1.0 -3.610858307862358e-15
  outer loop
    vertex 237.87729673785768 45.407047342975616 -1.4099832413184704e-14
    vertex 245.49431631285788 45.407047342975616 60.93615660000017
    vertex 237.87729673785768 45.407047342975616 51.795733110000015
  endloop
endfacet
facet normal 4.736297296655084e-16 -1.0 -3.610858307862358e-15
  outer loop
    vertex 237.87729673785768 45.407047342975616 51.795733110000015
    vertex 245.49431631285788 45.407047342975616 60.93615660000017
    vertex 100.7709443878578 45.407047342975616 51.795733110000015
  endloop
endfacet
facet normal 4.736297296655084e-16 -1.0 -3.610858307862358e-15
  outer loop
    vertex 100.7709443878578 45.407047342975616 51.795733110000015
    vertex 93.15392481285824 45.407047342975616 7.181912718046035e-14
    vertex 100.7709443878578 45.407047342975616 7.181912718046035e-14
  endloop
endfacet
facet normal 4.736297296655084e-16 -1.0 -3.610858307862358e-15
  outer loop
    vertex 93.15392481285824 45.407047342975616 7.181912718046035e-14
    vertex 100.7709443878578 45.407047342975616 51.795733110000015
    vertex 93.15392481285824 45.407047342975616 60.93615660000017
  endloop
endfacet
facet normal 4.736297296655084e-16 -1.0 -3.610858307862358e-15
  outer loop
    vertex 93.15392481285824 45.407047342975616 60.93615660000017
    vertex 100.7709443878578 45.407047342975616 51.795733110000015
    vertex 245.49431631285788 45.407047342975616 60.93615660000017
  endloop
endfacet
facet normal 0.0 1.8047785488307245e-14 -1.0
  outer loop
    vertex 245.49431631285788 53.02406691797578 1.233705029366473e-13
    vertex 237.87729673785768 45.407047342975616 -1.4099832413184704e-14
    vertex 237.87729673785768 53.02406691797578 1.233705029366473e-13
  endloop
endfacet
facet normal 0.0 1.8047785488307245e-14 -1.0
  outer loop
    vertex 237.87729673785768 45.407047342975616 -1.4099832413184704e-14
    vertex 245.49431631285788 53.02406691797578 1.233705029366473e-13
    vertex 245.49431631285788 45.407047342975616 -1.4099832413184704e-14
  endloop
endfacet
facet normal 1.0 0.0 0.0
  outer loop
    vertex 245.49431631285788 121.57724309297637 1.0618671101791832e-13
    vertex 245.49431631285788 113.9602235179758 51.79573311000014
    vertex 245.49431631285788 113.9602235179758 1.5773808677410607e-13
  endloop
endfacet
facet normal 1.0 0.0 0.0
  outer loop
    vertex 245.49431631285788 53.02406691797578 1.233705029366473e-13
    vertex 245.49431631285788 45.407047342975616 60.93615660000017
    vertex 245.49431631285788 45.407047342975616 -1.4099832413184704e-14
  endloop
endfacet
facet normal 1.0 0.0 0.0
  outer loop
    vertex 245.49431631285788 45.407047342975616 60.93615660000017
    vertex 245.49431631285788 53.02406691797578 1.233705029366473e-13
    vertex 245.49431631285788 53.02406691797578 51.795733110000015
  endloop
endfacet
facet normal 1.0 0.0 0.0
  outer loop
    vertex 245.49431631285788 45.407047342975616 60.93615660000017
    vertex 245.49431631285788 53.02406691797578 51.795733110000015
    vertex 245.49431631285788 121.57724309297637 60.936156600000146
  endloop
endfacet
facet normal 1.0 0.0 0.0
  outer loop
    vertex 245.49431631285788 121.57724309297637 60.936156600000146
    vertex 245.49431631285788 53.02406691797578 51.795733110000015
    vertex 245.49431631285788 113.9602235179758 51.79573311000014
  endloop
endfacet
facet normal 1.0 0.0 0.0
  outer loop
    vertex 245.49431631285788 121.57724309297637 60.936156600000146
    vertex 245.49431631285788 113.9602235179758 51.79573311000014
    vertex 245.49431631285788 121.57724309297637 1.0618671101791832e-13
  endloop
endfacet
facet normal -1.0 0.0 0.0
  outer loop
    vertex 237.87729673785768 53.02406691797578 51.795733110000015
    vertex 237.87729673785768 45.407047342975616 -1.4099832413184704e-14
    vertex 237.87729673785768 45.407047342975616 51.795733110000015
  endloop
endfacet
facet normal -1.0 0.0 0.0
  outer loop
    vertex 237.87729673785768 45.407047342975616 -1.4099832413184704e-14
    vertex 237.87729673785768 53.02406691797578 51.795733110000015
    vertex 237.87729673785768 53.02406691797578 1.233705029366473e-13
  endloop
endfacet
facet normal 0.0 1.0 2.6540861012215748e-15
  outer loop
    vertex 237.87729673785768 53.02406691797578 51.795733110000015
    vertex 245.49431631285788 53.02406691797578 1.233705029366473e-13
    vertex 237.87729673785768 53.02406691797578 1.233705029366473e-13
  endloop
endfacet
facet normal 0.0 1.0 2.6540861012215748e-15
  outer loop
    vertex 245.49431631285788 53.02406691797578 1.233705029366473e-13
    vertex 237.87729673785768 53.02406691797578 51.795733110000015
    vertex 245.49431631285788 53.02406691797578 51.795733110000015
  endloop
endfacet
facet normal 0.0 1.0 0.0
  outer loop
    vertex 93.15392481285824 121.57724309297637 60.936156600000146
    vertex 100.7709443878578 121.57724309297637 1.0618671101791832e-13
    vertex 93.15392481285824 121.57724309297637 1.0618671101791832e-13
  endloop
endfacet
facet normal 0.0 1.0 0.0
  outer loop
    vertex 100.7709443878578 121.57724309297637 1.0618671101791832e-13
    vertex 93.15392481285824 121.57724309297637 60.936156600000146
    vertex 100.7709443878578 121.57724309297637 51.79573311000014
  endloop
endfacet
facet normal 0.0 1.0 0.0
  outer loop
    vertex 100.7709443878578 121.57724309297637 51.79573311000014
    vertex 93.15392481285824 121.57724309297637 60.936156600000146
    vertex 237.87729673785768 121.57724309297637 51.79573311000014
  endloop
endfacet
facet normal 0.0 1.0 0.0
  outer loop
    vertex 237.87729673785768 121.57724309297637 51.79573311000014
    vertex 245.49431631285788 121.57724309297637 1.0618671101791832e-13
    vertex 237.87729673785768 121.57724309297637 1.0618671101791832e-13
  endloop
endfacet
facet normal 0.0 1.0 0.0
  outer loop
    vertex 245.49431631285788 121.57724309297637 1.0618671101791832e-13
    vertex 237.87729673785768 121.57724309297637 51.79573311000014
    vertex 245.49431631285788 121.57724309297637 60.936156600000146
  endloop
endfacet
facet normal 0.0 1.0 0.0
  outer loop
    vertex 245.49431631285788 121.57724309297637 60.936156600000146
    vertex 237.87729673785768 121.57724309297637 51.79573311000014
    vertex 93.15392481285824 121.57724309297637 60.936156600000146
  endloop
endfacet
facet normal 0.0 -6.767919558115076e-15 -1.0
  outer loop
    vertex 100.7709443878578 121.57724309297637 1.0618671101791832e-13
    vertex 93.15392481285824 113.9602235179758 1.5773808677410607e-13
    vertex 93.15392481285824 121.57724309297637 1.0618671101791832e-13
  endloop
endfacet
facet normal 0.0 -6.767919558115076e-15 -1.0
  outer loop
    vertex 93.15392481285824 113.9602235179758 1.5773808677410607e-13
    vertex 100.7709443878578 121.57724309297637 1.0618671101791832e-13
    vertex 100.7709443878578 113.9602235179758 1.5773808677410607e-13
  endloop
endfacet
facet normal 0.0 -1.0 -5.3081722024431314e-15
  outer loop
    vertex 100.7709443878578 113.9602235179758 51.79573311000014
    vertex 93.15392481285824 113.9602235179758 1.5773808677410607e-13
    vertex 100.7709443878578 113.9602235179758 1.5773808677410607e-13
  endloop
endfacet
facet normal 0.0 -1.0 -5.3081722024431314e-15
  outer loop
    vertex 93.15392481285824 113.9602235179758 1.5773808677410607e-13
    vertex 100.7709443878578 113.9602235179758 51.79573311000014
    vertex 93.15392481285824 113.9602235179758 51.79573311000014
  endloop
endfacet
facet normal 1.0 0.0 0.0
  outer loop
    vertex 100.7709443878578 121.57724309297637 1.0618671101791832e-13
    vertex 100.7709443878578 113.9602235179758 51.79573311000014
    vertex 100.7709443878578 113.9602235179758 1.5773808677410607e-13
  endloop
endfacet
facet normal 1.0 0.0 0.0
  outer loop
    vertex 100.7709443878578 113.9602235179758 51.79573311000014
    vertex 100.7709443878578 121.57724309297637 1.0618671101791832e-13
    vertex 100.7709443878578 121.57724309297637 51.79573311000014
  endloop
endfacet
facet normal -2.2963167617992822e-46 5.639932965095827e-16 1.0
  outer loop
    vertex 245.49431631285788 45.407047342975616 60.93615660000017
    vertex 93.15392481285824 121.57724309297637 60.936156600000146
    vertex 93.15392481285824 45.407047342975616 60.93615660000017
  endloop
endfacet
facet normal -2.2963167617992822e-46 5.639932965095827e-16 1.0
  outer loop
    vertex 93.15392481285824 121.57724309297637 60.936156600000146
    vertex 245.49431631285788 45.407047342975616 60.93615660000017
    vertex 245.49431631285788 121.57724309297637 60.936156600000146
  endloop
endfacet
facet normal 2.483535016071004e-32 9.89461923701021e-16 -1.0
  outer loop
    vertex 245.49431631285788 113.9602235179758 51.79573311000014
    vertex 237.87729673785768 53.02406691797578 51.795733110000015
    vertex 237.87729673785768 113.9602235179758 51.79573311000014
  endloop
endfacet
facet normal 2.483535016071004e-32 9.89461923701021e-16 -1.0
  outer loop
    vertex 237.87729673785768 53.02406691797578 51.795733110000015
    vertex 245.49431631285788 113.9602235179758 51.79573311000014
    vertex 245.49431631285788 53.02406691797578 51.795733110000015
  endloop
endfacet
facet normal 2.483535016071004e-32 9.89461923701021e-16 -1.0
  outer loop
    vertex 237.87729673785768 121.57724309297637 51.79573311000014
    vertex 100.7709443878578 113.9602235179758 51.79573311000014
    vertex 100.7709443878578 121.57724309297637 51.79573311000014
  endloop
endfacet
facet normal 2.483535016071004e-32 9.89461923701021e-16 -1.0
  outer loop
    vertex 100.7709443878578 113.9602235179758 51.79573311000014
    vertex 237.87729673785768 121.57724309297637 51.79573311000014
    vertex 100.7709443878578 53.02406691797578 51.795733110000015
  endloop
endfacet
facet normal 2.483535016071004e-32 9.89461923701021e-16 -1.0
  outer loop
    vertex 100.7709443878578 53.02406691797578 51.795733110000015
    vertex 237.87729673785768 121.57724309297637 51.79573311000014
    vertex 100.7709443878578 45.407047342975616 51.795733110000015
  endloop
endfacet
facet normal 2.483535016071004e-32 9.89461923701021e-16 -1.0
  outer loop
    vertex 100.7709443878578 45.407047342975616 51.795733110000015
    vertex 237.87729673785768 121.57724309297637 51.79573311000014
    vertex 237.87729673785768 45.407047342975616 51.795733110000015
  endloop
endfacet
facet normal 2.483535016071004e-32 9.89461923701021e-16 -1.0
  outer loop
    vertex 237.87729673785768 45.407047342975616 51.795733110000015
    vertex 237.87729673785768 121.57724309297637 51.79573311000014
    vertex 237.87729673785768 113.9602235179758 51.79573311000014
  endloop
endfacet
facet normal 2.483535016071004e-32 9.89461923701021e-16 -1.0
  outer loop
    vertex 237.87729673785768 45.407047342975616 51.795733110000015
    vertex 237.87729673785768 113.9602235179758 51.79573311000014
    vertex 237.87729673785768 53.02406691797578 51.795733110000015
  endloop
endfacet
facet normal 2.483535016071004e-32 9.89461923701021e-16 -1.0
  outer loop
    vertex 100.7709443878578 113.9602235179758 51.79573311000014
    vertex 93.15392481285824 53.02406691797578 51.795733110000015
    vertex 93.15392481285824 113.9602235179758 51.79573311000014
  endloop
endfacet
facet normal 2.483535016071004e-32 9.89461923701021e-16 -1.0
  outer loop
    vertex 93.15392481285824 53.02406691797578 51.795733110000015
    vertex 100.7709443878578 113.9602235179758 51.79573311000014
    vertex 100.7709443878578 53.02406691797578 51.795733110000015
  endloop
endfacet
endsolid table
